# xmcd
#
# Track frame offsets: 
#        150
#        17852
#        33196
#        46534
#        65120
#        77566
#        93027
#        107885
#        120821
#        141157
#        156401
#        168671
#        181973
#
# Disc length: 2579 seconds
#
# Revision: 0
# Processed by: cddbd v1.5.2PL0 Copyright (c) Steve Scherf et al.
# Submitted via: ExactAudioCopy v1.3
#
DISCID=9e0a110d
DTITLE=Sierra Hull - Secrets
DYEAR=2008
DGENRE=Bluegrass
TTITLE0=Secrets
TTITLE1=From Now On
TTITLE2=Two Winding Rails
TTITLE3=Smashville
TTITLE4=Everybody's Somebody's Fool
TTITLE5=Pretend
TTITLE6=If You Can Tame My Heart
TTITLE7=That's All I Can Say
TTITLE8=The Hard Way
TTITLE9=Hullarious
TTITLE10=Absence Makes the Heart Grow Fonder
TTITLE11=Only My Heart
TTITLE12=Trust and Obey
EXTD=
EXTT0=
EXTT1=
EXTT2=
EXTT3=
EXTT4=
EXTT5=
EXTT6=
EXTT7=
EXTT8=
EXTT9=
EXTT10=
EXTT11=
EXTT12=
PLAYORDER=
